<svg width="90" height="20" viewBox="0 0 90 20" fill="none" xmlns="http://www.w3.org/2000/svg">
<path d="M87.0698 0L72.9292 0C71.3139 0 69.9995 1.31439 69.9995 2.92969L69.9995 17.0703C69.9995 18.6856 71.3139 20 72.9292 20L78.8276 20V12.9297L76.4839 12.9297L76.4839 9.41406L78.8276 9.41406V7.03125C78.8276 5.09262 80.4046 3.51563 82.3433 3.51563L85.8979 3.51563L85.8979 7.03125L82.3433 7.03125V9.41406L85.8979 9.41406L85.312 12.9297L82.3433 12.9297V20L87.0698 20C88.6851 20 89.9995 18.6856 89.9995 17.0703L89.9995 2.92969C89.9995 1.31439 88.6851 0 87.0698 0Z" fill="black"/>
</svg>




